<svg width="28" height="17" viewBox="0 0 28 17" fill="none" xmlns="http://www.w3.org/2000/svg">
<path d="M25.1429 12.1429C24.1172 12.1429 23.2857 12.9743 23.2857 14C23.2857 15.0257 24.1172 15.8571 25.1429 15.8571C26.1686 15.8571 27 15.0257 27 14C27 12.9743 26.1686 12.1429 25.1429 12.1429Z" fill="white"/>
<path d="M14 12.1429C12.9743 12.1429 12.1429 12.9743 12.1429 14C12.1429 15.0257 12.9743 15.8571 14 15.8571C15.0257 15.8571 15.8571 15.0257 15.8571 14C15.8571 12.9743 15.0257 12.1429 14 12.1429Z" fill="white"/>
<path d="M2.85714 12.1429C1.83148 12.1429 1 12.9743 1 14C1 15.0257 1.83148 15.8571 2.85714 15.8571C3.88281 15.8571 4.71429 15.0257 4.71429 14C4.71429 12.9743 3.88281 12.1429 2.85714 12.1429Z" fill="white"/>
<path d="M25.1429 1C24.1172 1 23.2857 1.83148 23.2857 2.85715C23.2857 3.88281 24.1172 4.71429 25.1429 4.71429C26.1686 4.71429 27 3.88281 27 2.85715C27 1.83148 26.1686 1 25.1429 1Z" fill="white"/>
<path d="M14 1C12.9743 1 12.1429 1.83148 12.1429 2.85715C12.1429 3.88281 12.9743 4.71429 14 4.71429C15.0257 4.71429 15.8571 3.88281 15.8571 2.85715C15.8571 1.83148 15.0257 1 14 1Z" fill="white"/>
<path d="M2.85714 1C1.83148 1 1 1.83148 1 2.85714C1 3.88281 1.83148 4.71429 2.85714 4.71429C3.88281 4.71429 4.71429 3.88281 4.71429 2.85714C4.71429 1.83148 3.88281 1 2.85714 1Z" fill="white"/>
<path d="M25.1429 12.1429C24.1172 12.1429 23.2857 12.9743 23.2857 14C23.2857 15.0257 24.1172 15.8571 25.1429 15.8571C26.1686 15.8571 27 15.0257 27 14C27 12.9743 26.1686 12.1429 25.1429 12.1429Z" stroke="white" stroke-width="2" stroke-linecap="round" stroke-linejoin="round"/>
<path d="M14 12.1429C12.9743 12.1429 12.1429 12.9743 12.1429 14C12.1429 15.0257 12.9743 15.8571 14 15.8571C15.0257 15.8571 15.8571 15.0257 15.8571 14C15.8571 12.9743 15.0257 12.1429 14 12.1429Z" stroke="white" stroke-width="2" stroke-linecap="round" stroke-linejoin="round"/>
<path d="M2.85714 12.1429C1.83148 12.1429 1 12.9743 1 14C1 15.0257 1.83148 15.8571 2.85714 15.8571C3.88281 15.8571 4.71429 15.0257 4.71429 14C4.71429 12.9743 3.88281 12.1429 2.85714 12.1429Z" stroke="white" stroke-width="2" stroke-linecap="round" stroke-linejoin="round"/>
<path d="M25.1429 1C24.1172 1 23.2857 1.83148 23.2857 2.85715C23.2857 3.88281 24.1172 4.71429 25.1429 4.71429C26.1686 4.71429 27 3.88281 27 2.85715C27 1.83148 26.1686 1 25.1429 1Z" stroke="white" stroke-width="2" stroke-linecap="round" stroke-linejoin="round"/>
<path d="M14 1C12.9743 1 12.1429 1.83148 12.1429 2.85715C12.1429 3.88281 12.9743 4.71429 14 4.71429C15.0257 4.71429 15.8571 3.88281 15.8571 2.85715C15.8571 1.83148 15.0257 1 14 1Z" stroke="white" stroke-width="2" stroke-linecap="round" stroke-linejoin="round"/>
<path d="M2.85714 1C1.83148 1 1 1.83148 1 2.85714C1 3.88281 1.83148 4.71429 2.85714 4.71429C3.88281 4.71429 4.71429 3.88281 4.71429 2.85714C4.71429 1.83148 3.88281 1 2.85714 1Z" stroke="white" stroke-width="2" stroke-linecap="round" stroke-linejoin="round"/>
</svg>
