<svg width="104" height="104" viewBox="0 0 104 104" fill="none" xmlns="http://www.w3.org/2000/svg">
<path d="M33 20H60.4615C54.9426 21.5978 48.0221 27.9384 49.0441 41.8235M49.0441 41.8235C49.6317 49.8076 58.2692 61.7596 58.2692 75.4436C58.2692 105.507 25.8574 56.3332 49.0441 41.8235ZM49.0441 41.8235C52.9653 41.1157 63.0462 41.0921 72 46.6601M15 102H89C96.1797 102 102 96.1797 102 89V15C102 7.8203 96.1797 2 89 2H15C7.8203 2 2 7.8203 2 15V89C2 96.1797 7.8203 102 15 102Z" stroke="white" stroke-width="4" stroke-linecap="round"/>
</svg>
