<svg width="207" height="69" viewBox="0 0 207 69" fill="none" xmlns="http://www.w3.org/2000/svg">
<path d="M2 2H29.4615C23.9426 3.59782 17.0221 9.93837 18.0441 23.8235M18.0441 23.8235C18.6317 31.8076 27.2692 43.7596 27.2692 57.4436C27.2692 87.5068 -5.14265 38.3332 18.0441 23.8235ZM18.0441 23.8235C21.9653 23.1157 32.0462 23.0921 41 28.6601" stroke="white" stroke-width="4" stroke-linecap="round"/>
<path d="M52.1364 14.7841V10.7273H71.25V14.7841H64.125V34H59.2614V14.7841H52.1364ZM76.9091 34.3295C75.7955 34.3295 74.803 34.1364 73.9318 33.75C73.0606 33.3561 72.3712 32.7765 71.8636 32.0114C71.3636 31.2386 71.1136 30.2765 71.1136 29.125C71.1136 28.1553 71.2917 27.3409 71.6477 26.6818C72.0038 26.0227 72.4886 25.4924 73.1023 25.0909C73.7159 24.6894 74.4129 24.3864 75.1932 24.1818C75.9811 23.9773 76.8068 23.8333 77.6705 23.75C78.6856 23.6439 79.5038 23.5455 80.125 23.4545C80.7462 23.3561 81.197 23.2121 81.4773 23.0227C81.7576 22.8333 81.8977 22.553 81.8977 22.1818V22.1136C81.8977 21.3939 81.6705 20.8371 81.2159 20.4432C80.7689 20.0492 80.1326 19.8523 79.3068 19.8523C78.4356 19.8523 77.7424 20.0455 77.2273 20.4318C76.7121 20.8106 76.3712 21.2879 76.2045 21.8636L71.7273 21.5C71.9545 20.4394 72.4015 19.5227 73.0682 18.75C73.7348 17.9697 74.5947 17.3712 75.6477 16.9545C76.7083 16.5303 77.9356 16.3182 79.3295 16.3182C80.2992 16.3182 81.2273 16.4318 82.1136 16.6591C83.0076 16.8864 83.7992 17.2386 84.4886 17.7159C85.1856 18.1932 85.7348 18.8068 86.1364 19.5568C86.5379 20.2992 86.7386 21.1894 86.7386 22.2273V34H82.1477V31.5795H82.0114C81.7311 32.125 81.3561 32.6061 80.8864 33.0227C80.4167 33.4318 79.8523 33.7538 79.1932 33.9886C78.5341 34.2159 77.7727 34.3295 76.9091 34.3295ZM78.2955 30.9886C79.0076 30.9886 79.6364 30.8485 80.1818 30.5682C80.7273 30.2803 81.1553 29.8939 81.4659 29.4091C81.7765 28.9242 81.9318 28.375 81.9318 27.7614V25.9091C81.7803 26.0076 81.572 26.0985 81.3068 26.1818C81.0492 26.2576 80.7576 26.3295 80.4318 26.3977C80.1061 26.4583 79.7803 26.5152 79.4545 26.5682C79.1288 26.6136 78.8333 26.6553 78.5682 26.6932C78 26.7765 77.5038 26.9091 77.0795 27.0909C76.6553 27.2727 76.3258 27.5189 76.0909 27.8295C75.8561 28.1326 75.7386 28.5114 75.7386 28.9659C75.7386 29.625 75.9773 30.1288 76.4545 30.4773C76.9394 30.8182 77.553 30.9886 78.2955 30.9886ZM105.017 21.5227L100.585 21.7955C100.509 21.4167 100.347 21.0758 100.097 20.7727C99.8466 20.4621 99.517 20.2159 99.108 20.0341C98.7064 19.8447 98.2254 19.75 97.6648 19.75C96.9148 19.75 96.2822 19.9091 95.767 20.2273C95.2519 20.5379 94.9943 20.9545 94.9943 21.4773C94.9943 21.8939 95.161 22.2462 95.4943 22.5341C95.8277 22.822 96.3996 23.053 97.2102 23.2273L100.369 23.8636C102.066 24.2121 103.331 24.7727 104.165 25.5455C104.998 26.3182 105.415 27.3333 105.415 28.5909C105.415 29.7348 105.078 30.7386 104.403 31.6023C103.737 32.4659 102.82 33.1402 101.653 33.625C100.494 34.1023 99.1572 34.3409 97.642 34.3409C95.3314 34.3409 93.4905 33.8598 92.1193 32.8977C90.7557 31.928 89.9564 30.6098 89.7216 28.9432L94.483 28.6932C94.6269 29.3977 94.9754 29.9356 95.5284 30.3068C96.0814 30.6705 96.7898 30.8523 97.6534 30.8523C98.5019 30.8523 99.1837 30.6894 99.6989 30.3636C100.222 30.0303 100.487 29.6023 100.494 29.0795C100.487 28.6402 100.301 28.2803 99.9375 28C99.5739 27.7121 99.0133 27.4924 98.2557 27.3409L95.233 26.7386C93.5284 26.3977 92.2595 25.8068 91.4261 24.9659C90.6004 24.125 90.1875 23.053 90.1875 21.75C90.1875 20.6288 90.4905 19.6629 91.0966 18.8523C91.7102 18.0417 92.5701 17.4167 93.6761 16.9773C94.7898 16.5379 96.0928 16.3182 97.5852 16.3182C99.7898 16.3182 101.525 16.7841 102.79 17.7159C104.063 18.6477 104.805 19.9167 105.017 21.5227ZM112.849 28.9773L112.861 23.1705H113.565L119.156 16.5455H124.713L117.202 25.3182H116.054L112.849 28.9773ZM108.463 34V10.7273H113.304V34H108.463ZM119.372 34L114.236 26.3977L117.463 22.9773L125.043 34H119.372ZM134.585 34V10.7273H149.994V14.7841H139.506V20.3295H148.972V24.3864H139.506V34H134.585ZM158.054 10.7273V34H153.213V10.7273H158.054ZM169.818 34.3409C168.053 34.3409 166.527 33.9659 165.239 33.2159C163.958 32.4583 162.97 31.4053 162.273 30.0568C161.576 28.7008 161.227 27.1288 161.227 25.3409C161.227 23.5379 161.576 21.9621 162.273 20.6136C162.97 19.2576 163.958 18.2045 165.239 17.4545C166.527 16.697 168.053 16.3182 169.818 16.3182C171.583 16.3182 173.106 16.697 174.386 17.4545C175.674 18.2045 176.667 19.2576 177.364 20.6136C178.061 21.9621 178.409 23.5379 178.409 25.3409C178.409 27.1288 178.061 28.7008 177.364 30.0568C176.667 31.4053 175.674 32.4583 174.386 33.2159C173.106 33.9659 171.583 34.3409 169.818 34.3409ZM169.841 30.5909C170.644 30.5909 171.314 30.3636 171.852 29.9091C172.39 29.447 172.795 28.8182 173.068 28.0227C173.348 27.2273 173.489 26.322 173.489 25.3068C173.489 24.2917 173.348 23.3864 173.068 22.5909C172.795 21.7955 172.39 21.1667 171.852 20.7045C171.314 20.2424 170.644 20.0114 169.841 20.0114C169.03 20.0114 168.348 20.2424 167.795 20.7045C167.25 21.1667 166.837 21.7955 166.557 22.5909C166.284 23.3864 166.148 24.2917 166.148 25.3068C166.148 26.322 166.284 27.2273 166.557 28.0227C166.837 28.8182 167.25 29.447 167.795 29.9091C168.348 30.3636 169.03 30.5909 169.841 30.5909ZM184.562 34L179.812 16.5455H184.71L187.415 28.2727H187.574L190.392 16.5455H195.199L198.062 28.2045H198.21L200.869 16.5455H205.756L201.017 34H195.892L192.892 23.0227H192.676L189.676 34H184.562Z" fill="white"/>
<path d="M55.7727 49.6136V48.3636H64.5V49.6136H60.8409V60H59.4318V49.6136H55.7727ZM67.8736 60.2045C67.3205 60.2045 66.8187 60.1004 66.3679 59.892C65.9171 59.6799 65.5592 59.375 65.294 58.9773C65.0289 58.5758 64.8963 58.0909 64.8963 57.5227C64.8963 57.0227 64.9948 56.6174 65.1918 56.3068C65.3887 55.9924 65.652 55.7462 65.9815 55.5682C66.3111 55.3902 66.6747 55.2576 67.0724 55.1705C67.474 55.0795 67.8774 55.0076 68.2827 54.9545C68.813 54.8864 69.2429 54.8352 69.5724 54.8011C69.9058 54.7633 70.1482 54.7008 70.2997 54.6136C70.455 54.5265 70.5327 54.375 70.5327 54.1591V54.1136C70.5327 53.553 70.3793 53.1174 70.0724 52.8068C69.7694 52.4962 69.3092 52.3409 68.6918 52.3409C68.0516 52.3409 67.5497 52.4811 67.1861 52.7614C66.8224 53.0417 66.5668 53.3409 66.419 53.6591L65.1463 53.2045C65.3736 52.6742 65.6766 52.2614 66.0554 51.9659C66.438 51.6667 66.8546 51.4583 67.3054 51.3409C67.7599 51.2197 68.2069 51.1591 68.6463 51.1591C68.9266 51.1591 69.2486 51.1932 69.6122 51.2614C69.9796 51.3258 70.3338 51.4602 70.6747 51.6648C71.0194 51.8693 71.3054 52.178 71.5327 52.5909C71.7599 53.0038 71.8736 53.5568 71.8736 54.25V60H70.5327V58.8182H70.4645C70.3736 59.0076 70.2221 59.2102 70.0099 59.4261C69.7978 59.642 69.5156 59.8258 69.1634 59.9773C68.8111 60.1288 68.3812 60.2045 67.8736 60.2045ZM68.0781 59C68.6084 59 69.0554 58.8958 69.419 58.6875C69.7865 58.4792 70.063 58.2102 70.2486 57.8807C70.438 57.5511 70.5327 57.2045 70.5327 56.8409V55.6136C70.4759 55.6818 70.3509 55.7443 70.1577 55.8011C69.9683 55.8542 69.7486 55.9015 69.4986 55.9432C69.2524 55.9811 69.0118 56.0152 68.777 56.0455C68.5459 56.072 68.3584 56.0947 68.2145 56.1136C67.866 56.1591 67.5402 56.233 67.2372 56.3352C66.938 56.4337 66.6955 56.5833 66.5099 56.7841C66.3281 56.9811 66.2372 57.25 66.2372 57.5909C66.2372 58.0568 66.4096 58.4091 66.7543 58.6477C67.1027 58.8826 67.544 59 68.0781 59ZM80.5028 53.2273L79.2983 53.5682C79.2225 53.3674 79.1108 53.1723 78.9631 52.983C78.8191 52.7898 78.6222 52.6307 78.3722 52.5057C78.1222 52.3807 77.8021 52.3182 77.4119 52.3182C76.8778 52.3182 76.4328 52.4413 76.0767 52.6875C75.7244 52.9299 75.5483 53.2386 75.5483 53.6136C75.5483 53.947 75.6695 54.2102 75.9119 54.4034C76.1544 54.5966 76.5331 54.7576 77.0483 54.8864L78.3438 55.2045C79.1241 55.3939 79.7055 55.6837 80.0881 56.0739C80.4706 56.4602 80.6619 56.9583 80.6619 57.5682C80.6619 58.0682 80.518 58.5152 80.2301 58.9091C79.946 59.303 79.5483 59.6136 79.0369 59.8409C78.5256 60.0682 77.9309 60.1818 77.2528 60.1818C76.3627 60.1818 75.6259 59.9886 75.0426 59.6023C74.4593 59.2159 74.09 58.6515 73.9347 57.9091L75.2074 57.5909C75.3286 58.0606 75.5578 58.4129 75.8949 58.6477C76.2358 58.8826 76.6809 59 77.2301 59C77.8551 59 78.3513 58.8674 78.7188 58.6023C79.09 58.3333 79.2756 58.0114 79.2756 57.6364C79.2756 57.3333 79.1695 57.0795 78.9574 56.875C78.7453 56.6667 78.4195 56.5114 77.9801 56.4091L76.5256 56.0682C75.7263 55.8788 75.1392 55.5852 74.7642 55.1875C74.393 54.786 74.2074 54.2841 74.2074 53.6818C74.2074 53.1894 74.3456 52.7538 74.6222 52.375C74.9025 51.9962 75.2831 51.6989 75.7642 51.483C76.2491 51.267 76.7983 51.1591 77.4119 51.1591C78.2756 51.1591 78.9536 51.3485 79.446 51.7273C79.9422 52.1061 80.2945 52.6061 80.5028 53.2273ZM83.9304 56.8182L83.9077 55.1591H84.1804L87.9986 51.2727H89.6577L85.5895 55.3864H85.4759L83.9304 56.8182ZM82.6804 60V48.3636H84.0213V60H82.6804ZM88.2259 60L84.8168 55.6818L85.7713 54.75L89.9304 60H88.2259ZM95.8835 60V51.2727H97.179V52.6364H97.2926C97.4744 52.1705 97.768 51.8087 98.1733 51.5511C98.5786 51.2898 99.0653 51.1591 99.6335 51.1591C100.209 51.1591 100.688 51.2898 101.071 51.5511C101.457 51.8087 101.759 52.1705 101.974 52.6364H102.065C102.289 52.1856 102.624 51.8277 103.071 51.5625C103.518 51.2936 104.054 51.1591 104.679 51.1591C105.459 51.1591 106.098 51.4034 106.594 51.892C107.09 52.3769 107.338 53.1326 107.338 54.1591V60H105.997V54.1591C105.997 53.5152 105.821 53.0549 105.469 52.7784C105.116 52.5019 104.702 52.3636 104.224 52.3636C103.611 52.3636 103.135 52.5492 102.798 52.9205C102.461 53.2879 102.293 53.7538 102.293 54.3182V60H100.929V54.0227C100.929 53.5265 100.768 53.1269 100.446 52.8239C100.124 52.517 99.7093 52.3636 99.2017 52.3636C98.8532 52.3636 98.5275 52.4564 98.2244 52.642C97.9252 52.8277 97.6828 53.0852 97.4972 53.4148C97.3153 53.7405 97.2244 54.1174 97.2244 54.5455V60H95.8835ZM112.358 60.2045C111.805 60.2045 111.303 60.1004 110.852 59.892C110.402 59.6799 110.044 59.375 109.778 58.9773C109.513 58.5758 109.381 58.0909 109.381 57.5227C109.381 57.0227 109.479 56.6174 109.676 56.3068C109.873 55.9924 110.136 55.7462 110.466 55.5682C110.795 55.3902 111.159 55.2576 111.557 55.1705C111.958 55.0795 112.362 55.0076 112.767 54.9545C113.297 54.8864 113.727 54.8352 114.057 54.8011C114.39 54.7633 114.633 54.7008 114.784 54.6136C114.939 54.5265 115.017 54.375 115.017 54.1591V54.1136C115.017 53.553 114.864 53.1174 114.557 52.8068C114.254 52.4962 113.794 52.3409 113.176 52.3409C112.536 52.3409 112.034 52.4811 111.67 52.7614C111.307 53.0417 111.051 53.3409 110.903 53.6591L109.631 53.2045C109.858 52.6742 110.161 52.2614 110.54 51.9659C110.922 51.6667 111.339 51.4583 111.79 51.3409C112.244 51.2197 112.691 51.1591 113.131 51.1591C113.411 51.1591 113.733 51.1932 114.097 51.2614C114.464 51.3258 114.818 51.4602 115.159 51.6648C115.504 51.8693 115.79 52.178 116.017 52.5909C116.244 53.0038 116.358 53.5568 116.358 54.25V60H115.017V58.8182H114.949C114.858 59.0076 114.706 59.2102 114.494 59.4261C114.282 59.642 114 59.8258 113.648 59.9773C113.295 60.1288 112.866 60.2045 112.358 60.2045ZM112.562 59C113.093 59 113.54 58.8958 113.903 58.6875C114.271 58.4792 114.547 58.2102 114.733 57.8807C114.922 57.5511 115.017 57.2045 115.017 56.8409V55.6136C114.96 55.6818 114.835 55.7443 114.642 55.8011C114.453 55.8542 114.233 55.9015 113.983 55.9432C113.737 55.9811 113.496 56.0152 113.261 56.0455C113.03 56.072 112.843 56.0947 112.699 56.1136C112.35 56.1591 112.025 56.233 111.722 56.3352C111.422 56.4337 111.18 56.5833 110.994 56.7841C110.813 56.9811 110.722 57.25 110.722 57.5909C110.722 58.0568 110.894 58.4091 111.239 58.6477C111.587 58.8826 112.028 59 112.562 59ZM120.146 54.75V60H118.805V51.2727H120.101V52.6364H120.214C120.419 52.1932 120.73 51.8371 121.146 51.5682C121.563 51.2955 122.101 51.1591 122.76 51.1591C123.351 51.1591 123.868 51.2803 124.311 51.5227C124.754 51.7614 125.099 52.125 125.345 52.6136C125.591 53.0985 125.714 53.7121 125.714 54.4545V60H124.374V54.5455C124.374 53.8598 124.196 53.3258 123.839 52.9432C123.483 52.5568 122.995 52.3636 122.374 52.3636C121.946 52.3636 121.563 52.4564 121.226 52.642C120.893 52.8277 120.629 53.0985 120.436 53.4545C120.243 53.8106 120.146 54.2424 120.146 54.75ZM130.733 60.2045C130.18 60.2045 129.678 60.1004 129.227 59.892C128.777 59.6799 128.419 59.375 128.153 58.9773C127.888 58.5758 127.756 58.0909 127.756 57.5227C127.756 57.0227 127.854 56.6174 128.051 56.3068C128.248 55.9924 128.511 55.7462 128.841 55.5682C129.17 55.3902 129.534 55.2576 129.932 55.1705C130.333 55.0795 130.737 55.0076 131.142 54.9545C131.672 54.8864 132.102 54.8352 132.432 54.8011C132.765 54.7633 133.008 54.7008 133.159 54.6136C133.314 54.5265 133.392 54.375 133.392 54.1591V54.1136C133.392 53.553 133.239 53.1174 132.932 52.8068C132.629 52.4962 132.169 52.3409 131.551 52.3409C130.911 52.3409 130.409 52.4811 130.045 52.7614C129.682 53.0417 129.426 53.3409 129.278 53.6591L128.006 53.2045C128.233 52.6742 128.536 52.2614 128.915 51.9659C129.297 51.6667 129.714 51.4583 130.165 51.3409C130.619 51.2197 131.066 51.1591 131.506 51.1591C131.786 51.1591 132.108 51.1932 132.472 51.2614C132.839 51.3258 133.193 51.4602 133.534 51.6648C133.879 51.8693 134.165 52.178 134.392 52.5909C134.619 53.0038 134.733 53.5568 134.733 54.25V60H133.392V58.8182H133.324C133.233 59.0076 133.081 59.2102 132.869 59.4261C132.657 59.642 132.375 59.8258 132.023 59.9773C131.67 60.1288 131.241 60.2045 130.733 60.2045ZM130.938 59C131.468 59 131.915 58.8958 132.278 58.6875C132.646 58.4792 132.922 58.2102 133.108 57.8807C133.297 57.5511 133.392 57.2045 133.392 56.8409V55.6136C133.335 55.6818 133.21 55.7443 133.017 55.8011C132.828 55.8542 132.608 55.9015 132.358 55.9432C132.112 55.9811 131.871 56.0152 131.636 56.0455C131.405 56.072 131.218 56.0947 131.074 56.1136C130.725 56.1591 130.4 56.233 130.097 56.3352C129.797 56.4337 129.555 56.5833 129.369 56.7841C129.188 56.9811 129.097 57.25 129.097 57.5909C129.097 58.0568 129.269 58.4091 129.614 58.6477C129.962 58.8826 130.403 59 130.938 59ZM140.703 63.4545C140.055 63.4545 139.499 63.3712 139.033 63.2045C138.567 63.0417 138.179 62.8258 137.868 62.5568C137.561 62.2917 137.317 62.0076 137.135 61.7045L138.203 60.9545C138.324 61.1136 138.478 61.2955 138.663 61.5C138.849 61.7083 139.103 61.8883 139.425 62.0398C139.75 62.1951 140.177 62.2727 140.703 62.2727C141.408 62.2727 141.989 62.1023 142.447 61.7614C142.906 61.4205 143.135 60.8864 143.135 60.1591V58.3864H143.021C142.923 58.5455 142.783 58.7424 142.601 58.9773C142.423 59.2083 142.165 59.4148 141.828 59.5966C141.495 59.7746 141.044 59.8636 140.476 59.8636C139.771 59.8636 139.139 59.697 138.578 59.3636C138.021 59.0303 137.58 58.5455 137.254 57.9091C136.932 57.2727 136.771 56.5 136.771 55.5909C136.771 54.697 136.929 53.9186 137.243 53.2557C137.557 52.589 137.995 52.0739 138.555 51.7102C139.116 51.3428 139.764 51.1591 140.499 51.1591C141.067 51.1591 141.518 51.2538 141.851 51.4432C142.188 51.6288 142.446 51.8409 142.624 52.0795C142.805 52.3144 142.946 52.5076 143.044 52.6591H143.18V51.2727H144.476V60.25C144.476 61 144.305 61.6098 143.964 62.0795C143.627 62.553 143.173 62.8996 142.601 63.1193C142.033 63.3428 141.4 63.4545 140.703 63.4545ZM140.658 58.6591C141.196 58.6591 141.65 58.536 142.021 58.2898C142.393 58.0436 142.675 57.6894 142.868 57.2273C143.061 56.7652 143.158 56.2121 143.158 55.5682C143.158 54.9394 143.063 54.3845 142.874 53.9034C142.684 53.4223 142.404 53.0455 142.033 52.7727C141.661 52.5 141.203 52.3636 140.658 52.3636C140.089 52.3636 139.616 52.5076 139.237 52.7955C138.862 53.0833 138.58 53.4697 138.391 53.9545C138.205 54.4394 138.112 54.9773 138.112 55.5682C138.112 56.1742 138.207 56.7102 138.396 57.1761C138.589 57.6383 138.874 58.0019 139.249 58.267C139.627 58.5284 140.097 58.6591 140.658 58.6591ZM150.589 60.1818C149.749 60.1818 149.023 59.9962 148.413 59.625C147.807 59.25 147.339 58.7273 147.01 58.0568C146.684 57.3826 146.521 56.5985 146.521 55.7045C146.521 54.8106 146.684 54.0227 147.01 53.3409C147.339 52.6553 147.798 52.1212 148.385 51.7386C148.976 51.3523 149.665 51.1591 150.453 51.1591C150.908 51.1591 151.357 51.2348 151.8 51.3864C152.243 51.5379 152.646 51.7841 153.01 52.125C153.374 52.4621 153.663 52.9091 153.879 53.4659C154.095 54.0227 154.203 54.7083 154.203 55.5227V56.0909H147.476V54.9318H152.839C152.839 54.4394 152.741 54 152.544 53.6136C152.351 53.2273 152.074 52.9223 151.714 52.6989C151.358 52.4754 150.938 52.3636 150.453 52.3636C149.919 52.3636 149.457 52.4962 149.067 52.7614C148.68 53.0227 148.383 53.3636 148.175 53.7841C147.966 54.2045 147.862 54.6553 147.862 55.1364V55.9091C147.862 56.5682 147.976 57.1269 148.203 57.5852C148.434 58.0398 148.754 58.3864 149.163 58.625C149.572 58.8598 150.048 58.9773 150.589 58.9773C150.942 58.9773 151.26 58.928 151.544 58.8295C151.832 58.7273 152.08 58.5758 152.288 58.375C152.497 58.1705 152.658 57.9167 152.771 57.6136L154.067 57.9773C153.93 58.4167 153.701 58.803 153.379 59.1364C153.057 59.4659 152.66 59.7235 152.186 59.9091C151.713 60.0909 151.18 60.1818 150.589 60.1818ZM156.243 60V51.2727H157.538V52.5909H157.629C157.788 52.1591 158.076 51.8087 158.493 51.5398C158.91 51.2708 159.379 51.1364 159.902 51.1364C160 51.1364 160.124 51.1383 160.271 51.142C160.419 51.1458 160.531 51.1515 160.607 51.1591V52.5227C160.561 52.5114 160.457 52.4943 160.294 52.4716C160.135 52.4451 159.966 52.4318 159.788 52.4318C159.364 52.4318 158.985 52.5208 158.652 52.6989C158.322 52.8731 158.061 53.1155 157.868 53.4261C157.679 53.733 157.584 54.0833 157.584 54.4773V60H156.243Z" fill="white"/>
</svg>
