<svg width="27" height="20" viewBox="0 0 27 20" fill="none" xmlns="http://www.w3.org/2000/svg">
<path d="M22.9896 11.3707C24.704 11.3707 26.0941 9.98152 26.0941 8.26713C26.0941 6.55273 24.704 5.1626 22.9896 5.1626C21.2756 5.1626 19.8855 6.55273 19.8855 8.26713C19.8856 9.98152 21.2756 11.3707 22.9896 11.3707Z" fill="white"/>
<path d="M26.9646 14.3621C26.8263 13.5309 26.1392 12.3676 25.6191 11.8479C25.5506 11.779 25.2444 11.7631 25.1618 11.8144C24.5295 12.2032 23.7868 12.4321 22.9896 12.4321C22.1934 12.4321 21.4506 12.2032 20.8183 11.8144C20.7352 11.7631 20.4295 11.779 20.361 11.8479C20.2156 11.9933 20.057 12.1868 19.9023 12.4113C20.3207 13.1991 20.6526 14.036 20.7723 14.7567C20.8921 15.4791 20.8532 16.1631 20.6596 16.7866C21.3472 17.0354 22.1717 17.1445 22.9896 17.1445C25.1229 17.1445 27.3061 16.4048 26.9646 14.3621Z" fill="white"/>
<path d="M13.4203 10.0611C16.1987 10.0611 18.4513 7.8085 18.4513 5.03013C18.4513 2.2526 16.1987 0 13.4203 0C10.6423 0 8.39056 2.2526 8.39056 5.03013C8.39056 7.8085 10.6423 10.0611 13.4203 10.0611Z" fill="white"/>
<path d="M17.6803 10.8317C17.5711 10.723 17.0753 10.6952 16.9405 10.7786C15.915 11.4096 14.7114 11.779 13.4203 11.779C12.1301 11.779 10.9259 11.4096 9.90087 10.7786C9.76613 10.6951 9.27038 10.723 9.16121 10.8317C8.31636 11.6756 7.20287 13.5624 6.97885 14.9074C6.42651 18.2205 9.96541 19.4166 13.4203 19.4166C16.8761 19.4166 20.4149 18.2205 19.8626 14.9074C19.6385 13.5624 18.5251 11.6756 17.6803 10.8317Z" fill="white"/>
<path d="M4.01041 11.3707C5.72439 11.3707 7.11447 9.98152 7.11447 8.26713C7.11447 6.55273 5.72439 5.1626 4.01041 5.1626C2.29596 5.1626 0.905884 6.55273 0.905884 8.26713C0.905884 9.98152 2.29596 11.3707 4.01041 11.3707Z" fill="white"/>
<path d="M6.06944 14.7567C6.19675 13.9998 6.55592 13.1086 7.00622 12.2845C6.88071 12.113 6.75526 11.9637 6.63945 11.8479C6.57095 11.779 6.26519 11.7631 6.18214 11.8144C5.5498 12.2032 4.80703 12.4321 4.01043 12.4321C3.21372 12.4321 2.47048 12.2032 1.83866 11.8144C1.75598 11.7631 1.44938 11.779 1.38088 11.8479C0.859491 12.3675 0.174207 13.5309 0.0354099 14.3621C-0.305676 16.4048 1.87711 17.1445 4.01043 17.1445C4.77175 17.1445 5.54057 17.0508 6.19675 16.8365C5.98997 16.2003 5.9462 15.5003 6.06944 14.7567Z" fill="white"/>
</svg>
